<?xml version="1.0" encoding="UTF-8"?>
<svg width="19px" height="20px" viewBox="0 0 19 20" version="1.1" xmlns="http://www.w3.org/2000/svg" xmlns:xlink="http://www.w3.org/1999/xlink">
    <!-- Generator: sketchtool 55.2 (78181) - https://sketchapp.com -->
    <title>2BC6626F-4274-4FF1-B72F-A9F022A39F24</title>
    <desc>Created with sketchtool.</desc>
    <g id="Page-1" stroke="none" strokeWidth="1" fill="none" fillRule="evenodd">
        <g id="itsme_login" transform="translate(-1100.000000, -850.000000)" fill="#1C2042">
            <g id="footer" transform="translate(165.000000, 850.000000)">
                <g id="Group-7">
                    <g id="ico_lock" transform="translate(935.000000, 0.000000)">
                        <path d="M16.1481481,19.9259259 L2.14814815,19.9259259 C1.11111111,19.9259259 0.222222222,19.1111111 0.222222222,18 L0.222222222,9.92592593 C0.222222222,8.88888889 1.03703704,8 2.14814815,8 L16.1481481,8 C17.1851852,8 18.0740741,8.81481481 18.0740741,9.92592593 L18.0740741,18 C18,19.1111111 17.1851852,19.9259259 16.1481481,19.9259259 Z M2.14814815,9.25925926 C1.77777778,9.25925926 1.40740741,9.62962963 1.40740741,10 L1.40740741,18.0740741 C1.40740741,18.4444444 1.77777778,18.8148148 2.14814815,18.8148148 L16.1481481,18.8148148 C16.5185185,18.8148148 16.8888889,18.4444444 16.8888889,18.0740741 L16.8888889,10 C16.8888889,9.62962963 16.5185185,9.25925926 16.1481481,9.25925926 C16.1481481,9.25925926 2.14814815,9.25925926 2.14814815,9.25925926 Z" id="Shape" fillRule="nonzero"></path>
                        <path d="M13.2592593,8.66666667 L13.2592593,5.92592593 C13.2592593,3.7037037 11.3333333,1.77777778 9.11111111,1.77777778 C6.88888889,1.77777778 4.96296296,3.7037037 4.96296296,5.92592593 L4.96296296,8.66666667 L3.77777778,8.66666667 L3.77777778,5.92592593 C3.77777778,2.96296296 6.14814815,0.592592593 9.11111111,0.592592593 C12.0740741,0.592592593 14.4444444,2.96296296 14.4444444,5.92592593 L14.4444444,8.66666667 L13.2592593,8.66666667 Z" id="Path"></path>
                        <path d="M9.11111111,15.9259259 C8.74074074,15.9259259 8.51851852,15.7037037 8.51851852,15.3333333 L8.51851852,12.5925926 C8.51851852,12.2222222 8.74074074,12 9.11111111,12 C9.48148148,12 9.7037037,12.2222222 9.7037037,12.5925926 L9.7037037,15.3333333 C9.7037037,15.7037037 9.48148148,15.9259259 9.11111111,15.9259259 Z" id="Path"></path>
                        <path d="M9.11111111,16.5185185 C8.74074074,16.5185185 8.51851852,16.3703704 8.2962963,16.1481481 C8.07407407,15.9259259 7.92592593,15.7037037 7.92592593,15.3333333 C7.92592593,14.962963 8.07407407,14.7407407 8.2962963,14.5185185 C8.74074074,14.0740741 9.48148148,14.0740741 9.92592593,14.5185185 C10.1481481,14.7407407 10.2962963,14.962963 10.2962963,15.3333333 C10.2962963,15.7037037 10.1481481,15.9259259 9.92592593,16.1481481 C9.7037037,16.3703704 9.48148148,16.5185185 9.11111111,16.5185185 Z" id="Path"></path>
                    </g>
                </g>
            </g>
        </g>
    </g>
</svg>